<svg xmlns="http://www.w3.org/2000/svg" xmlns:xlink="http://www.w3.org/1999/xlink" width="178" zoomAndPan="magnify" viewBox="0 0 133.5 30.000001" height="40" preserveAspectRatio="xMidYMid meet" version="1.0"><defs><g/></defs><path stroke-linecap="butt" transform="matrix(0.725806, 0, 0, 0.725806, 6.928201, 22.149499)" fill="none" stroke-linejoin="miter" d="M 0.00204811 2.501142 L 55.968889 2.501142 " stroke="#8231d3" stroke-width="5" stroke-opacity="1" stroke-miterlimit="4"/><g fill="#8231d3" fill-opacity="1"><g transform="translate(6.928201, 17.787172)"><g><path d="M 5.796875 0.25 C 4.753906 0.25 3.742188 0.125 2.765625 -0.125 C 1.785156 -0.382812 0.992188 -0.726562 0.390625 -1.15625 L 1.578125 -3.828125 C 2.148438 -3.453125 2.816406 -3.144531 3.578125 -2.90625 C 4.335938 -2.675781 5.082031 -2.5625 5.8125 -2.5625 C 7.207031 -2.5625 7.90625 -2.910156 7.90625 -3.609375 C 7.90625 -3.972656 7.707031 -4.242188 7.3125 -4.421875 C 6.914062 -4.609375 6.273438 -4.796875 5.390625 -4.984375 C 4.421875 -5.191406 3.613281 -5.414062 2.96875 -5.65625 C 2.320312 -5.894531 1.765625 -6.273438 1.296875 -6.796875 C 0.835938 -7.328125 0.609375 -8.039062 0.609375 -8.9375 C 0.609375 -9.71875 0.820312 -10.421875 1.25 -11.046875 C 1.675781 -11.679688 2.3125 -12.179688 3.15625 -12.546875 C 4.007812 -12.910156 5.054688 -13.09375 6.296875 -13.09375 C 7.140625 -13.09375 7.96875 -13 8.78125 -12.8125 C 9.601562 -12.625 10.328125 -12.347656 10.953125 -11.984375 L 9.828125 -9.28125 C 8.609375 -9.9375 7.425781 -10.265625 6.28125 -10.265625 C 5.550781 -10.265625 5.019531 -10.15625 4.6875 -9.9375 C 4.363281 -9.726562 4.203125 -9.453125 4.203125 -9.109375 C 4.203125 -8.773438 4.394531 -8.519531 4.78125 -8.34375 C 5.175781 -8.175781 5.804688 -8 6.671875 -7.8125 C 7.648438 -7.601562 8.460938 -7.378906 9.109375 -7.140625 C 9.753906 -6.898438 10.3125 -6.519531 10.78125 -6 C 11.25 -5.488281 11.484375 -4.785156 11.484375 -3.890625 C 11.484375 -3.117188 11.269531 -2.421875 10.84375 -1.796875 C 10.414062 -1.171875 9.769531 -0.671875 8.90625 -0.296875 C 8.050781 0.0664062 7.015625 0.25 5.796875 0.25 Z M 5.796875 0.25 "/></g></g></g><g fill="#8231d3" fill-opacity="1"><g transform="translate(20.387802, 17.787172)"><g><path d="M 7.15625 -12.84375 C 8.3125 -12.84375 9.316406 -12.648438 10.171875 -12.265625 C 11.035156 -11.878906 11.695312 -11.328125 12.15625 -10.609375 C 12.625 -9.890625 12.859375 -9.050781 12.859375 -8.09375 C 12.859375 -7.125 12.625 -6.285156 12.15625 -5.578125 C 11.695312 -4.867188 11.035156 -4.320312 10.171875 -3.9375 C 9.316406 -3.550781 8.3125 -3.359375 7.15625 -3.359375 L 4.921875 -3.359375 L 4.921875 0 L 1.28125 0 L 1.28125 -12.84375 Z M 6.9375 -6.21875 C 7.675781 -6.21875 8.234375 -6.378906 8.609375 -6.703125 C 8.992188 -7.023438 9.1875 -7.488281 9.1875 -8.09375 C 9.1875 -8.6875 8.992188 -9.148438 8.609375 -9.484375 C 8.234375 -9.816406 7.675781 -9.984375 6.9375 -9.984375 L 4.921875 -9.984375 L 4.921875 -6.21875 Z M 6.9375 -6.21875 "/></g></g></g><g fill="#8231d3" fill-opacity="1"><g transform="translate(35.497738, 17.787172)"><g><path d="M 11.59375 -2.8125 L 11.59375 0 L 1.28125 0 L 1.28125 -12.84375 L 11.359375 -12.84375 L 11.359375 -10.03125 L 4.875 -10.03125 L 4.875 -7.875 L 10.578125 -7.875 L 10.578125 -5.15625 L 4.875 -5.15625 L 4.875 -2.8125 Z M 11.59375 -2.8125 "/></g></g></g><g fill="#8231d3" fill-opacity="1"><g transform="translate(49.41577, 17.787172)"><g><path d="M 7.6875 0.25 C 6.34375 0.25 5.132812 -0.03125 4.0625 -0.59375 C 2.988281 -1.164062 2.144531 -1.957031 1.53125 -2.96875 C 0.925781 -3.988281 0.625 -5.140625 0.625 -6.421875 C 0.625 -7.703125 0.925781 -8.847656 1.53125 -9.859375 C 2.144531 -10.878906 2.988281 -11.671875 4.0625 -12.234375 C 5.132812 -12.804688 6.34375 -13.09375 7.6875 -13.09375 C 8.863281 -13.09375 9.921875 -12.882812 10.859375 -12.46875 C 11.796875 -12.050781 12.578125 -11.453125 13.203125 -10.671875 L 10.890625 -8.578125 C 10.066406 -9.585938 9.0625 -10.09375 7.875 -10.09375 C 7.175781 -10.09375 6.550781 -9.9375 6 -9.625 C 5.457031 -9.320312 5.035156 -8.890625 4.734375 -8.328125 C 4.441406 -7.773438 4.296875 -7.140625 4.296875 -6.421875 C 4.296875 -5.703125 4.441406 -5.0625 4.734375 -4.5 C 5.035156 -3.945312 5.457031 -3.515625 6 -3.203125 C 6.550781 -2.898438 7.175781 -2.75 7.875 -2.75 C 9.0625 -2.75 10.066406 -3.25 10.890625 -4.25 L 13.203125 -2.171875 C 12.578125 -1.378906 11.796875 -0.773438 10.859375 -0.359375 C 9.921875 0.046875 8.863281 0.25 7.6875 0.25 Z M 7.6875 0.25 "/></g></g></g><g fill="#8231d3" fill-opacity="1"><g transform="translate(64.544044, 17.787172)"><g><path d="M 4.015625 -9.953125 L 0.078125 -9.953125 L 0.078125 -12.84375 L 11.578125 -12.84375 L 11.578125 -9.953125 L 7.65625 -9.953125 L 7.65625 0 L 4.015625 0 Z M 4.015625 -9.953125 "/></g></g></g><g fill="#8231d3" fill-opacity="1"><g transform="translate(77.783604, 17.787172)"><g><path d="M 6.890625 -3.40625 L 4.921875 -3.40625 L 4.921875 0 L 1.28125 0 L 1.28125 -12.84375 L 7.15625 -12.84375 C 8.3125 -12.84375 9.316406 -12.648438 10.171875 -12.265625 C 11.035156 -11.878906 11.695312 -11.328125 12.15625 -10.609375 C 12.625 -9.890625 12.859375 -9.050781 12.859375 -8.09375 C 12.859375 -7.164062 12.640625 -6.351562 12.203125 -5.65625 C 11.773438 -4.96875 11.15625 -4.425781 10.34375 -4.03125 L 13.109375 0 L 9.234375 0 Z M 9.1875 -8.09375 C 9.1875 -8.6875 8.992188 -9.148438 8.609375 -9.484375 C 8.234375 -9.816406 7.675781 -9.984375 6.9375 -9.984375 L 4.921875 -9.984375 L 4.921875 -6.21875 L 6.9375 -6.21875 C 7.675781 -6.21875 8.234375 -6.378906 8.609375 -6.703125 C 8.992188 -7.023438 9.1875 -7.488281 9.1875 -8.09375 Z M 9.1875 -8.09375 "/></g></g></g><g fill="#8231d3" fill-opacity="1"><g transform="translate(92.948552, 17.787172)"><g><path d="M 7.203125 0.25 C 5.296875 0.25 3.8125 -0.265625 2.75 -1.296875 C 1.695312 -2.335938 1.171875 -3.8125 1.171875 -5.71875 L 1.171875 -12.84375 L 4.8125 -12.84375 L 4.8125 -5.828125 C 4.8125 -3.773438 5.625 -2.75 7.25 -2.75 C 8.863281 -2.75 9.671875 -3.773438 9.671875 -5.828125 L 9.671875 -12.84375 L 13.25 -12.84375 L 13.25 -5.71875 C 13.25 -3.8125 12.71875 -2.335938 11.65625 -1.296875 C 10.601562 -0.265625 9.117188 0.25 7.203125 0.25 Z M 7.203125 0.25 "/></g></g></g><g fill="#8231d3" fill-opacity="1"><g transform="translate(108.957005, 17.787172)"><g><path d="M 12.875 0 L 12.84375 -6.8125 L 9.53125 -1.265625 L 7.921875 -1.265625 L 4.640625 -6.625 L 4.640625 0 L 1.28125 0 L 1.28125 -12.84375 L 4.28125 -12.84375 L 8.78125 -5.4375 L 13.1875 -12.84375 L 16.171875 -12.84375 L 16.21875 0 Z M 12.875 0 "/></g></g></g><g fill="#8231d3" fill-opacity="1"><g transform="translate(52.730973, 24.91917)"><g><path d="M 1.203125 0.046875 C 0.984375 0.046875 0.773438 0.0195312 0.578125 -0.03125 C 0.378906 -0.09375 0.222656 -0.171875 0.109375 -0.265625 L 0.3125 -0.734375 C 0.425781 -0.648438 0.5625 -0.582031 0.71875 -0.53125 C 0.882812 -0.476562 1.046875 -0.453125 1.203125 -0.453125 C 1.378906 -0.453125 1.507812 -0.476562 1.59375 -0.53125 C 1.675781 -0.582031 1.71875 -0.648438 1.71875 -0.734375 C 1.71875 -0.796875 1.691406 -0.847656 1.640625 -0.890625 C 1.585938 -0.929688 1.523438 -0.960938 1.453125 -0.984375 C 1.378906 -1.015625 1.273438 -1.046875 1.140625 -1.078125 C 0.929688 -1.128906 0.757812 -1.175781 0.625 -1.21875 C 0.5 -1.269531 0.390625 -1.347656 0.296875 -1.453125 C 0.203125 -1.566406 0.15625 -1.710938 0.15625 -1.890625 C 0.15625 -2.046875 0.195312 -2.1875 0.28125 -2.3125 C 0.363281 -2.4375 0.488281 -2.535156 0.65625 -2.609375 C 0.832031 -2.679688 1.046875 -2.71875 1.296875 -2.71875 C 1.460938 -2.71875 1.625 -2.695312 1.78125 -2.65625 C 1.945312 -2.625 2.09375 -2.566406 2.21875 -2.484375 L 2.03125 -2.015625 C 1.78125 -2.160156 1.53125 -2.234375 1.28125 -2.234375 C 1.113281 -2.234375 0.988281 -2.203125 0.90625 -2.140625 C 0.820312 -2.085938 0.78125 -2.015625 0.78125 -1.921875 C 0.78125 -1.828125 0.828125 -1.757812 0.921875 -1.71875 C 1.015625 -1.675781 1.160156 -1.628906 1.359375 -1.578125 C 1.566406 -1.535156 1.734375 -1.488281 1.859375 -1.4375 C 1.992188 -1.382812 2.101562 -1.304688 2.1875 -1.203125 C 2.28125 -1.097656 2.328125 -0.957031 2.328125 -0.78125 C 2.328125 -0.632812 2.285156 -0.492188 2.203125 -0.359375 C 2.117188 -0.234375 1.988281 -0.132812 1.8125 -0.0625 C 1.644531 0.0078125 1.441406 0.046875 1.203125 0.046875 Z M 1.203125 0.046875 "/></g></g></g><g fill="#8231d3" fill-opacity="1"><g transform="translate(58.225044, 24.91917)"><g><path d="M 0.875 -2.171875 L 0.015625 -2.171875 L 0.015625 -2.671875 L 2.34375 -2.671875 L 2.34375 -2.171875 L 1.5 -2.171875 L 1.5 0 L 0.875 0 Z M 0.875 -2.171875 "/></g></g></g><g fill="#8231d3" fill-opacity="1"><g transform="translate(63.6427, 24.91917)"><g><path d="M 1.609375 0.046875 C 1.335938 0.046875 1.085938 -0.0078125 0.859375 -0.125 C 0.640625 -0.25 0.46875 -0.414062 0.34375 -0.625 C 0.21875 -0.84375 0.15625 -1.082031 0.15625 -1.34375 C 0.15625 -1.601562 0.21875 -1.835938 0.34375 -2.046875 C 0.46875 -2.253906 0.640625 -2.414062 0.859375 -2.53125 C 1.085938 -2.65625 1.335938 -2.71875 1.609375 -2.71875 C 1.890625 -2.71875 2.140625 -2.65625 2.359375 -2.53125 C 2.585938 -2.414062 2.765625 -2.253906 2.890625 -2.046875 C 3.015625 -1.835938 3.078125 -1.601562 3.078125 -1.34375 C 3.078125 -1.082031 3.015625 -0.84375 2.890625 -0.625 C 2.765625 -0.414062 2.585938 -0.25 2.359375 -0.125 C 2.140625 -0.0078125 1.890625 0.046875 1.609375 0.046875 Z M 1.609375 -0.484375 C 1.773438 -0.484375 1.921875 -0.519531 2.046875 -0.59375 C 2.171875 -0.664062 2.269531 -0.765625 2.34375 -0.890625 C 2.414062 -1.023438 2.453125 -1.175781 2.453125 -1.34375 C 2.453125 -1.507812 2.414062 -1.65625 2.34375 -1.78125 C 2.269531 -1.914062 2.171875 -2.019531 2.046875 -2.09375 C 1.921875 -2.164062 1.773438 -2.203125 1.609375 -2.203125 C 1.453125 -2.203125 1.3125 -2.164062 1.1875 -2.09375 C 1.0625 -2.019531 0.960938 -1.914062 0.890625 -1.78125 C 0.816406 -1.65625 0.78125 -1.507812 0.78125 -1.34375 C 0.78125 -1.175781 0.816406 -1.023438 0.890625 -0.890625 C 0.960938 -0.765625 1.0625 -0.664062 1.1875 -0.59375 C 1.3125 -0.519531 1.453125 -0.484375 1.609375 -0.484375 Z M 1.609375 -0.484375 "/></g></g></g><g fill="#8231d3" fill-opacity="1"><g transform="translate(69.923823, 24.91917)"><g><path d="M 1.59375 0.046875 C 1.320312 0.046875 1.078125 -0.0078125 0.859375 -0.125 C 0.640625 -0.25 0.46875 -0.414062 0.34375 -0.625 C 0.21875 -0.832031 0.15625 -1.070312 0.15625 -1.34375 C 0.15625 -1.601562 0.21875 -1.835938 0.34375 -2.046875 C 0.46875 -2.265625 0.640625 -2.429688 0.859375 -2.546875 C 1.078125 -2.660156 1.328125 -2.71875 1.609375 -2.71875 C 1.835938 -2.71875 2.046875 -2.675781 2.234375 -2.59375 C 2.421875 -2.519531 2.578125 -2.40625 2.703125 -2.25 L 2.3125 -1.890625 C 2.125 -2.097656 1.898438 -2.203125 1.640625 -2.203125 C 1.472656 -2.203125 1.320312 -2.164062 1.1875 -2.09375 C 1.0625 -2.019531 0.960938 -1.914062 0.890625 -1.78125 C 0.816406 -1.65625 0.78125 -1.507812 0.78125 -1.34375 C 0.78125 -1.175781 0.816406 -1.023438 0.890625 -0.890625 C 0.960938 -0.765625 1.0625 -0.664062 1.1875 -0.59375 C 1.320312 -0.519531 1.472656 -0.484375 1.640625 -0.484375 C 1.898438 -0.484375 2.125 -0.585938 2.3125 -0.796875 L 2.703125 -0.4375 C 2.578125 -0.28125 2.421875 -0.160156 2.234375 -0.078125 C 2.046875 0.00390625 1.832031 0.046875 1.59375 0.046875 Z M 1.59375 0.046875 "/></g></g></g><g fill="#8231d3" fill-opacity="1"><g transform="translate(75.780856, 24.91917)"><g><path d="M 1.296875 -1.046875 L 0.9375 -0.671875 L 0.9375 0 L 0.3125 0 L 0.3125 -2.671875 L 0.9375 -2.671875 L 0.9375 -1.421875 L 2.125 -2.671875 L 2.8125 -2.671875 L 1.703125 -1.484375 L 2.875 0 L 2.15625 0 Z M 1.296875 -1.046875 "/></g></g></g><g fill="#8231d3" fill-opacity="1"><g transform="translate(81.664634, 24.91917)"><g/></g></g><g fill="#8231d3" fill-opacity="1"><g transform="translate(85.802375, 24.91917)"><g><path d="M 2.75 0 L 2.75 -1.609375 L 1.96875 -0.28125 L 1.6875 -0.28125 L 0.90625 -1.578125 L 0.90625 0 L 0.3125 0 L 0.3125 -2.671875 L 0.828125 -2.671875 L 1.828125 -1.015625 L 2.828125 -2.671875 L 3.328125 -2.671875 L 3.34375 0 Z M 2.75 0 "/></g></g></g><g fill="#8231d3" fill-opacity="1"><g transform="translate(92.507591, 24.91917)"><g><path d="M 2.078125 -0.578125 L 0.84375 -0.578125 L 0.59375 0 L -0.03125 0 L 1.15625 -2.671875 L 1.765625 -2.671875 L 2.96875 0 L 2.3125 0 Z M 1.890625 -1.046875 L 1.46875 -2.078125 L 1.03125 -1.046875 Z M 1.890625 -1.046875 "/></g></g></g><g fill="#8231d3" fill-opacity="1"><g transform="translate(98.490706, 24.91917)"><g><path d="M 2.78125 -2.671875 L 2.78125 0 L 2.265625 0 L 0.9375 -1.625 L 0.9375 0 L 0.3125 0 L 0.3125 -2.671875 L 0.828125 -2.671875 L 2.15625 -1.046875 L 2.15625 -2.671875 Z M 2.78125 -2.671875 "/></g></g></g><g fill="#8231d3" fill-opacity="1"><g transform="translate(104.634291, 24.91917)"><g><path d="M 2.078125 -0.578125 L 0.84375 -0.578125 L 0.59375 0 L -0.03125 0 L 1.15625 -2.671875 L 1.765625 -2.671875 L 2.96875 0 L 2.3125 0 Z M 1.890625 -1.046875 L 1.46875 -2.078125 L 1.03125 -1.046875 Z M 1.890625 -1.046875 "/></g></g></g><g fill="#8231d3" fill-opacity="1"><g transform="translate(110.617406, 24.91917)"><g><path d="M 2.125 -1.375 L 2.6875 -1.375 L 2.6875 -0.296875 C 2.550781 -0.179688 2.382812 -0.09375 2.1875 -0.03125 C 2 0.0195312 1.804688 0.046875 1.609375 0.046875 C 1.328125 0.046875 1.078125 -0.0078125 0.859375 -0.125 C 0.640625 -0.25 0.46875 -0.414062 0.34375 -0.625 C 0.21875 -0.832031 0.15625 -1.070312 0.15625 -1.34375 C 0.15625 -1.601562 0.21875 -1.835938 0.34375 -2.046875 C 0.46875 -2.265625 0.640625 -2.429688 0.859375 -2.546875 C 1.085938 -2.660156 1.34375 -2.71875 1.625 -2.71875 C 1.851562 -2.71875 2.0625 -2.675781 2.25 -2.59375 C 2.445312 -2.519531 2.613281 -2.410156 2.75 -2.265625 L 2.34375 -1.890625 C 2.15625 -2.097656 1.925781 -2.203125 1.65625 -2.203125 C 1.476562 -2.203125 1.320312 -2.164062 1.1875 -2.09375 C 1.0625 -2.019531 0.960938 -1.914062 0.890625 -1.78125 C 0.816406 -1.65625 0.78125 -1.507812 0.78125 -1.34375 C 0.78125 -1.175781 0.816406 -1.023438 0.890625 -0.890625 C 0.960938 -0.765625 1.0625 -0.664062 1.1875 -0.59375 C 1.320312 -0.519531 1.472656 -0.484375 1.640625 -0.484375 C 1.816406 -0.484375 1.976562 -0.519531 2.125 -0.59375 Z M 2.125 -1.375 "/></g></g></g><g fill="#8231d3" fill-opacity="1"><g transform="translate(116.619623, 24.91917)"><g><path d="M 2.390625 -0.5 L 2.390625 0 L 0.3125 0 L 0.3125 -2.671875 L 2.34375 -2.671875 L 2.34375 -2.1875 L 0.9375 -2.1875 L 0.9375 -1.59375 L 2.171875 -1.59375 L 2.171875 -1.125 L 0.9375 -1.125 L 0.9375 -0.5 Z M 2.390625 -0.5 "/></g></g></g><g fill="#8231d3" fill-opacity="1"><g transform="translate(122.239779, 24.91917)"><g><path d="M 2.03125 0 L 1.515625 -0.75 L 0.9375 -0.75 L 0.9375 0 L 0.3125 0 L 0.3125 -2.671875 L 1.484375 -2.671875 C 1.710938 -2.671875 1.914062 -2.628906 2.09375 -2.546875 C 2.269531 -2.472656 2.40625 -2.363281 2.5 -2.21875 C 2.59375 -2.070312 2.640625 -1.898438 2.640625 -1.703125 C 2.640625 -1.503906 2.59375 -1.332031 2.5 -1.1875 C 2.40625 -1.039062 2.269531 -0.929688 2.09375 -0.859375 L 2.6875 0 Z M 2.015625 -1.703125 C 2.015625 -1.859375 1.960938 -1.972656 1.859375 -2.046875 C 1.765625 -2.128906 1.625 -2.171875 1.4375 -2.171875 L 0.9375 -2.171875 L 0.9375 -1.234375 L 1.4375 -1.234375 C 1.625 -1.234375 1.765625 -1.273438 1.859375 -1.359375 C 1.960938 -1.441406 2.015625 -1.554688 2.015625 -1.703125 Z M 2.015625 -1.703125 "/></g></g></g></svg>