<svg xmlns="http://www.w3.org/2000/svg" xmlns:xlink="http://www.w3.org/1999/xlink" width="178" zoomAndPan="magnify" viewBox="0 0 133.5 30.000001" height="40" preserveAspectRatio="xMidYMid meet" version="1.0"><defs><g/></defs><path stroke-linecap="butt" transform="matrix(0.725806, 0, 0, 0.725806, 7.654007, 21.762488)" fill="none" stroke-linejoin="miter" d="M -0.00229216 2.501545 L 55.964549 2.501545 " stroke="#8231d3" stroke-width="5" stroke-opacity="1" stroke-miterlimit="4"/><g fill="#8231d3" fill-opacity="1"><g transform="translate(6.266127, 17.400161)"><g><path d="M 12.875 0 L 12.84375 -6.8125 L 9.53125 -1.265625 L 7.921875 -1.265625 L 4.640625 -6.625 L 4.640625 0 L 1.28125 0 L 1.28125 -12.84375 L 4.28125 -12.84375 L 8.78125 -5.4375 L 13.1875 -12.84375 L 16.171875 -12.84375 L 16.21875 0 Z M 12.875 0 "/></g></g></g><g fill="#8231d3" fill-opacity="1"><g transform="translate(25.3552, 17.400161)"><g><path d="M 9.890625 -2.5 L 4.453125 -2.5 L 3.453125 0 L -0.25 0 L 5.40625 -12.84375 L 8.984375 -12.84375 L 14.671875 0 L 10.890625 0 Z M 8.828125 -5.171875 L 7.171875 -9.28125 L 5.515625 -5.171875 Z M 8.828125 -5.171875 "/></g></g></g><g fill="#8231d3" fill-opacity="1"><g transform="translate(41.363653, 17.400161)"><g><path d="M 1.28125 -12.84375 L 4.921875 -12.84375 L 4.921875 0 L 1.28125 0 Z M 1.28125 -12.84375 "/></g></g></g><g fill="#8231d3" fill-opacity="1"><g transform="translate(49.175449, 17.400161)"><g><path d="M 1.28125 -12.84375 L 4.921875 -12.84375 L 4.921875 -2.875 L 11.046875 -2.875 L 11.046875 0 L 1.28125 0 Z M 1.28125 -12.84375 "/></g></g></g><g fill="#8231d3" fill-opacity="1"><g transform="translate(61.956583, 17.400161)"><g><path d="M 14.3125 -12.84375 L 8.8125 0 L 5.234375 0 L -0.25 -12.84375 L 3.671875 -12.84375 L 7.15625 -4.46875 L 10.71875 -12.84375 Z M 14.3125 -12.84375 "/></g></g></g><g fill="#8231d3" fill-opacity="1"><g transform="translate(77.598295, 17.400161)"><g><path d="M 7.765625 0.25 C 6.398438 0.25 5.175781 -0.0351562 4.09375 -0.609375 C 3.007812 -1.179688 2.160156 -1.972656 1.546875 -2.984375 C 0.929688 -4.003906 0.625 -5.148438 0.625 -6.421875 C 0.625 -7.691406 0.929688 -8.832031 1.546875 -9.84375 C 2.160156 -10.863281 3.007812 -11.660156 4.09375 -12.234375 C 5.175781 -12.804688 6.398438 -13.09375 7.765625 -13.09375 C 9.117188 -13.09375 10.335938 -12.804688 11.421875 -12.234375 C 12.503906 -11.660156 13.351562 -10.863281 13.96875 -9.84375 C 14.582031 -8.832031 14.890625 -7.691406 14.890625 -6.421875 C 14.890625 -5.148438 14.582031 -4.003906 13.96875 -2.984375 C 13.351562 -1.972656 12.503906 -1.179688 11.421875 -0.609375 C 10.335938 -0.0351562 9.117188 0.25 7.765625 0.25 Z M 7.765625 -2.75 C 8.410156 -2.75 8.992188 -2.898438 9.515625 -3.203125 C 10.046875 -3.515625 10.460938 -3.945312 10.765625 -4.5 C 11.066406 -5.0625 11.21875 -5.703125 11.21875 -6.421875 C 11.21875 -7.140625 11.066406 -7.773438 10.765625 -8.328125 C 10.460938 -8.890625 10.046875 -9.320312 9.515625 -9.625 C 8.992188 -9.9375 8.410156 -10.09375 7.765625 -10.09375 C 7.109375 -10.09375 6.515625 -9.9375 5.984375 -9.625 C 5.460938 -9.320312 5.050781 -8.890625 4.75 -8.328125 C 4.445312 -7.773438 4.296875 -7.140625 4.296875 -6.421875 C 4.296875 -5.703125 4.445312 -5.0625 4.75 -4.5 C 5.050781 -3.945312 5.460938 -3.515625 5.984375 -3.203125 C 6.515625 -2.898438 7.109375 -2.75 7.765625 -2.75 Z M 7.765625 -2.75 "/></g></g></g><g fill="#8231d3" fill-opacity="1"><g transform="translate(94.706973, 17.400161)"><g><path d="M 6.890625 -3.40625 L 4.921875 -3.40625 L 4.921875 0 L 1.28125 0 L 1.28125 -12.84375 L 7.15625 -12.84375 C 8.3125 -12.84375 9.316406 -12.648438 10.171875 -12.265625 C 11.035156 -11.878906 11.695312 -11.328125 12.15625 -10.609375 C 12.625 -9.890625 12.859375 -9.050781 12.859375 -8.09375 C 12.859375 -7.164062 12.640625 -6.351562 12.203125 -5.65625 C 11.773438 -4.96875 11.15625 -4.425781 10.34375 -4.03125 L 13.109375 0 L 9.234375 0 Z M 9.1875 -8.09375 C 9.1875 -8.6875 8.992188 -9.148438 8.609375 -9.484375 C 8.234375 -9.816406 7.675781 -9.984375 6.9375 -9.984375 L 4.921875 -9.984375 L 4.921875 -6.21875 L 6.9375 -6.21875 C 7.675781 -6.21875 8.234375 -6.378906 8.609375 -6.703125 C 8.992188 -7.023438 9.1875 -7.488281 9.1875 -8.09375 Z M 9.1875 -8.09375 "/></g></g></g><g fill="#8231d3" fill-opacity="1"><g transform="translate(109.87192, 17.400161)"><g><path d="M 9.890625 -2.5 L 4.453125 -2.5 L 3.453125 0 L -0.25 0 L 5.40625 -12.84375 L 8.984375 -12.84375 L 14.671875 0 L 10.890625 0 Z M 8.828125 -5.171875 L 7.171875 -9.28125 L 5.515625 -5.171875 Z M 8.828125 -5.171875 "/></g></g></g><g fill="#000000" fill-opacity="1"><g transform="translate(52.005167, 24.695512)"><g><path d="M 3.4375 0 L 3.4375 -2.015625 L 2.453125 -0.359375 L 2.109375 -0.359375 L 1.125 -1.96875 L 1.125 0 L 0.390625 0 L 0.390625 -3.34375 L 1.03125 -3.34375 L 2.296875 -1.265625 L 3.53125 -3.34375 L 4.15625 -3.34375 L 4.171875 0 Z M 3.4375 0 "/></g></g></g><g fill="#000000" fill-opacity="1"><g transform="translate(60.40568, 24.695512)"><g><path d="M 2.59375 -0.71875 L 1.046875 -0.71875 L 0.75 0 L -0.046875 0 L 1.453125 -3.34375 L 2.21875 -3.34375 L 3.703125 0 L 2.890625 0 Z M 2.359375 -1.3125 L 1.828125 -2.59375 L 1.296875 -1.3125 Z M 2.359375 -1.3125 "/></g></g></g><g fill="#000000" fill-opacity="1"><g transform="translate(67.901798, 24.695512)"><g><path d="M 0.390625 -3.34375 L 1.171875 -3.34375 L 1.171875 0 L 0.390625 0 Z M 0.390625 -3.34375 "/></g></g></g><g fill="#000000" fill-opacity="1"><g transform="translate(73.302012, 24.695512)"><g><path d="M 0.390625 -3.34375 L 1.171875 -3.34375 L 1.171875 -0.625 L 2.84375 -0.625 L 2.84375 0 L 0.390625 0 Z M 0.390625 -3.34375 "/></g></g></g><g fill="#000000" fill-opacity="1"><g transform="translate(80.022931, 24.695512)"><g><path d="M 0.390625 -3.34375 L 1.171875 -3.34375 L 1.171875 0 L 0.390625 0 Z M 0.390625 -3.34375 "/></g></g></g><g fill="#000000" fill-opacity="1"><g transform="translate(85.423143, 24.695512)"><g><path d="M 3.46875 -3.34375 L 3.46875 0 L 2.828125 0 L 1.15625 -2.03125 L 1.15625 0 L 0.390625 0 L 0.390625 -3.34375 L 1.03125 -3.34375 L 2.703125 -1.3125 L 2.703125 -3.34375 Z M 3.46875 -3.34375 "/></g></g></g><g fill="#000000" fill-opacity="1"><g transform="translate(93.120236, 24.695512)"><g><path d="M 2.65625 -1.71875 L 3.359375 -1.71875 L 3.359375 -0.375 C 3.179688 -0.226562 2.972656 -0.117188 2.734375 -0.046875 C 2.492188 0.0234375 2.253906 0.0625 2.015625 0.0625 C 1.660156 0.0625 1.34375 -0.0078125 1.0625 -0.15625 C 0.789062 -0.3125 0.578125 -0.519531 0.421875 -0.78125 C 0.265625 -1.039062 0.1875 -1.335938 0.1875 -1.671875 C 0.1875 -2.003906 0.265625 -2.300781 0.421875 -2.5625 C 0.578125 -2.820312 0.796875 -3.023438 1.078125 -3.171875 C 1.359375 -3.328125 1.675781 -3.40625 2.03125 -3.40625 C 2.320312 -3.40625 2.585938 -3.351562 2.828125 -3.25 C 3.066406 -3.15625 3.265625 -3.015625 3.421875 -2.828125 L 2.9375 -2.359375 C 2.695312 -2.617188 2.40625 -2.75 2.0625 -2.75 C 1.851562 -2.75 1.664062 -2.703125 1.5 -2.609375 C 1.332031 -2.523438 1.203125 -2.398438 1.109375 -2.234375 C 1.015625 -2.066406 0.96875 -1.878906 0.96875 -1.671875 C 0.96875 -1.460938 1.015625 -1.273438 1.109375 -1.109375 C 1.203125 -0.953125 1.328125 -0.828125 1.484375 -0.734375 C 1.648438 -0.648438 1.84375 -0.609375 2.0625 -0.609375 C 2.28125 -0.609375 2.476562 -0.65625 2.65625 -0.75 Z M 2.65625 -1.71875 "/></g></g></g><g fill="#000000" fill-opacity="1"><g transform="translate(100.64028, 24.695512)"><g/></g></g><g fill="#000000" fill-opacity="1"><g transform="translate(105.825159, 24.695512)"><g><path d="M 2.59375 -0.71875 L 1.046875 -0.71875 L 0.75 0 L -0.046875 0 L 1.453125 -3.34375 L 2.21875 -3.34375 L 3.703125 0 L 2.890625 0 Z M 2.359375 -1.3125 L 1.828125 -2.59375 L 1.296875 -1.3125 Z M 2.359375 -1.3125 "/></g></g></g><g fill="#000000" fill-opacity="1"><g transform="translate(113.321276, 24.695512)"><g><path d="M 1.84375 -3.34375 C 2.144531 -3.34375 2.398438 -3.289062 2.609375 -3.1875 C 2.828125 -3.09375 2.992188 -2.953125 3.109375 -2.765625 C 3.234375 -2.585938 3.296875 -2.375 3.296875 -2.125 C 3.296875 -1.882812 3.234375 -1.671875 3.109375 -1.484375 C 2.992188 -1.304688 2.828125 -1.164062 2.609375 -1.0625 C 2.398438 -0.96875 2.144531 -0.921875 1.84375 -0.921875 L 1.171875 -0.921875 L 1.171875 0 L 0.390625 0 L 0.390625 -3.34375 Z M 1.796875 -1.546875 C 2.035156 -1.546875 2.210938 -1.597656 2.328125 -1.703125 C 2.453125 -1.804688 2.515625 -1.945312 2.515625 -2.125 C 2.515625 -2.320312 2.453125 -2.46875 2.328125 -2.5625 C 2.210938 -2.664062 2.035156 -2.71875 1.796875 -2.71875 L 1.171875 -2.71875 L 1.171875 -1.546875 Z M 1.796875 -1.546875 "/></g></g></g><g fill="#000000" fill-opacity="1"><g transform="translate(120.654696, 24.695512)"><g><path d="M 1.84375 -3.34375 C 2.144531 -3.34375 2.398438 -3.289062 2.609375 -3.1875 C 2.828125 -3.09375 2.992188 -2.953125 3.109375 -2.765625 C 3.234375 -2.585938 3.296875 -2.375 3.296875 -2.125 C 3.296875 -1.882812 3.234375 -1.671875 3.109375 -1.484375 C 2.992188 -1.304688 2.828125 -1.164062 2.609375 -1.0625 C 2.398438 -0.96875 2.144531 -0.921875 1.84375 -0.921875 L 1.171875 -0.921875 L 1.171875 0 L 0.390625 0 L 0.390625 -3.34375 Z M 1.796875 -1.546875 C 2.035156 -1.546875 2.210938 -1.597656 2.328125 -1.703125 C 2.453125 -1.804688 2.515625 -1.945312 2.515625 -2.125 C 2.515625 -2.320312 2.453125 -2.46875 2.328125 -2.5625 C 2.210938 -2.664062 2.035156 -2.71875 1.796875 -2.71875 L 1.171875 -2.71875 L 1.171875 -1.546875 Z M 1.796875 -1.546875 "/></g></g></g></svg>